Coda.ufo
<glyph name="dollar" format="1">
  <advance width="1322"/>
  <unicode hex="0024"/>
  <outline>
    <contour>
      <point x="720" y="-24" type="curve"/>
      <point x="720" y="-176" type="line"/>
      <point x="626" y="-176" type="line"/>
      <point x="626" y="-24" type="line"/>
      <point x="186" y="-20"/>
      <point x="162" y="76"/>
      <point x="149" y="380" type="curve"/>
      <point x="334" y="410" type="line"/>
      <point x="358" y="198"/>
      <point x="328" y="143"/>
      <point x="626" y="140" type="curve"/>
      <point x="626" y="694" type="line"/>
      <point x="403" y="733" type="line" smooth="yes"/>
      <point x="229" y="763"/>
      <point x="168" y="853"/>
      <point x="168" y="1081" type="curve" smooth="yes"/>
      <point x="168" y="1434"/>
      <point x="272" y="1510"/>
      <point x="626" y="1513" type="curve"/>
      <point x="626" y="1641" type="line"/>
      <point x="720" y="1641" type="line"/>
      <point x="720" y="1512" type="line"/>
      <point x="1018" y="1505"/>
      <point x="1138" y="1448"/>
      <point x="1138" y="1170" type="curve"/>
      <point x="960" y="1129" type="line"/>
      <point x="945" y="1300"/>
      <point x="964" y="1341"/>
      <point x="720" y="1344" type="curve"/>
      <point x="720" y="871" type="line"/>
      <point x="802" y="857" type="line" smooth="yes"/>
      <point x="1055" y="807"/>
      <point x="1174" y="783"/>
      <point x="1174" y="437" type="curve" smooth="yes"/>
      <point x="1174" y="32"/>
      <point x="1047" y="-19"/>
    </contour>
    <contour>
      <point x="901" y="646" type="curve" smooth="yes"/>
      <point x="720" y="678" type="line"/>
      <point x="720" y="141" type="line"/>
      <point x="950" y="145"/>
      <point x="973" y="177"/>
      <point x="973" y="281" type="curve" smooth="yes"/>
      <point x="973" y="365" type="line" smooth="yes"/>
      <point x="973" y="563"/>
      <point x="969" y="634"/>
    </contour>
    <contour>
      <point x="444" y="918" type="curve" smooth="yes"/>
      <point x="626" y="887" type="line"/>
      <point x="626" y="1343" type="line"/>
      <point x="390" y="1338"/>
      <point x="362" y="1299"/>
      <point x="362" y="1199" type="curve" smooth="yes"/>
      <point x="362" y="1026" type="line" smooth="yes"/>
      <point x="362" y="974"/>
      <point x="379" y="929"/>
    </contour>
  </outline>
</glyph>
<glyph name="percent" format="1">
  <advance width="2264"/>
  <unicode hex="0025"/>
  <outline>
    <contour>
      <point x="687" y="930" type="curve" smooth="yes"/>
      <point x="687" y="1075" type="line" smooth="yes"/>
      <point x="687" y="1304"/>
      <point x="683" y="1307"/>
      <point x="491" y="1307" type="curve" smooth="yes"/>
      <point x="308" y="1307"/>
      <point x="292" y="1306"/>
      <point x="292" y="1079" type="curve" smooth="yes"/>
      <point x="292" y="1022"/>
      <point x="291" y="974"/>
      <point x="291" y="934" type="curve" smooth="yes"/>
      <point x="291" y="730"/>
      <point x="305" y="716"/>
      <point x="474" y="716" type="curve" smooth="yes"/>
      <point x="673" y="716"/>
      <point x="687" y="731"/>
    </contour>
    <contour>
      <point x="842" y="898" type="curve" smooth="yes"/>
      <point x="842" y="652"/>
      <point x="751" y="584"/>
      <point x="491" y="584" type="curve" smooth="yes"/>
      <point x="148" y="584"/>
      <point x="144" y="683"/>
      <point x="144" y="1124" type="curve" smooth="yes"/>
      <point x="144" y="1376"/>
      <point x="236" y="1438"/>
      <point x="491" y="1438" type="curve" smooth="yes"/>
      <point x="834" y="1438"/>
      <point x="842" y="1336"/>
    </contour>
    <contour>
      <point x="1970" y="512" type="curve" smooth="yes"/>
      <point x="1970" y="657" type="line" smooth="yes"/>
      <point x="1970" y="886"/>
      <point x="1966" y="889"/>
      <point x="1774" y="889" type="curve" smooth="yes"/>
      <point x="1591" y="889"/>
      <point x="1575" y="888"/>
      <point x="1575" y="661" type="curve" smooth="yes"/>
      <point x="1575" y="604"/>
      <point x="1574" y="556"/>
      <point x="1574" y="516" type="curve" smooth="yes"/>
      <point x="1574" y="312"/>
      <point x="1588" y="298"/>
      <point x="1757" y="298" type="curve" smooth="yes"/>
      <point x="1956" y="298"/>
      <point x="1970" y="313"/>
    </contour>
    <contour>
      <point x="1236" y="1573" type="curve"/>
      <point x="1407" y="1573" type="line"/>
      <point x="1280" y="1048"/>
      <point x="1154" y="526"/>
      <point x="1025" y="1" type="curve"/>
      <point x="857" y="1" type="line"/>
      <point x="984" y="525"/>
      <point x="1110" y="1048"/>
    </contour>
    <contour>
      <point x="2125" y="480" type="curve" smooth="yes"/>
      <point x="2125" y="234"/>
      <point x="2034" y="166"/>
      <point x="1774" y="166" type="curve" smooth="yes"/>
      <point x="1431" y="166"/>
      <point x="1427" y="265"/>
      <point x="1427" y="706" type="curve" smooth="yes"/>
      <point x="1427" y="958"/>
      <point x="1519" y="1020"/>
      <point x="1774" y="1020" type="curve" smooth="yes"/>
      <point x="2117" y="1020"/>
      <point x="2125" y="918"/>
    </contour>
  </outline>
</glyph>
<glyph name="parenright" format="1">
  <advance width="804"/>
  <unicode hex="0029"/>
  <outline>
    <contour>
      <point x="658" y="729" type="curve" smooth="yes"/>
      <point x="658" y="727" type="line" smooth="yes"/>
      <point x="658" y="217"/>
      <point x="525" y="-195"/>
      <point x="126" y="-229" type="curve"/>
      <point x="111" y="-92" type="line"/>
      <point x="379" y="-51"/>
      <point x="467" y="261"/>
      <point x="467" y="728" type="curve" smooth="yes"/>
      <point x="467" y="1195"/>
      <point x="379" y="1507"/>
      <point x="111" y="1548" type="curve"/>
      <point x="126" y="1685" type="line"/>
      <point x="525" y="1651"/>
      <point x="658" y="1239"/>
    </contour>
  </outline>
</glyph>
<glyph name="nine" format="1">
  <advance width="1295"/>
  <unicode hex="0039"/>
  <outline>
    <contour>
      <point x="646" y="706" type="curve" smooth="yes"/>
      <point x="938" y="706"/>
      <point x="959" y="779"/>
      <point x="959" y="976" type="curve" smooth="yes"/>
      <point x="959" y="1008"/>
      <point x="958" y="1042"/>
      <point x="958" y="1080" type="curve" smooth="yes"/>
      <point x="958" y="1296"/>
      <point x="957" y="1369"/>
      <point x="645" y="1369" type="curve" smooth="yes"/>
      <point x="361" y="1369"/>
      <point x="326" y="1306"/>
      <point x="326" y="1154" type="curve" smooth="yes"/>
      <point x="326" y="1105"/>
      <point x="330" y="1047"/>
      <point x="330" y="979" type="curve" smooth="yes"/>
      <point x="330" y="758"/>
      <point x="336" y="706"/>
    </contour>
    <contour>
      <point x="1143" y="841" type="curve" smooth="yes"/>
      <point x="1143" y="731" type="line" smooth="yes"/>
      <point x="1143" y="173"/>
      <point x="1129" y="-2"/>
      <point x="652" y="-2" type="curve" smooth="yes"/>
      <point x="422" y="-2"/>
      <point x="197" y="7"/>
      <point x="197" y="207" type="curve" smooth="yes"/>
      <point x="197" y="225"/>
      <point x="197" y="262"/>
      <point x="206" y="317" type="curve"/>
      <point x="260" y="323"/>
      <point x="313" y="330"/>
      <point x="365" y="338" type="curve"/>
      <point x="365" y="165"/>
      <point x="369" y="125"/>
      <point x="642" y="125" type="curve" smooth="yes"/>
      <point x="882" y="125"/>
      <point x="930" y="159"/>
      <point x="941" y="302" type="curve" smooth="yes"/>
      <point x="951" y="440"/>
      <point x="952" y="579"/>
      <point x="955" y="719" type="curve"/>
      <point x="893" y="605"/>
      <point x="788" y="553"/>
      <point x="630" y="553" type="curve" smooth="yes"/>
      <point x="269" y="553"/>
      <point x="150" y="623"/>
      <point x="150" y="1002" type="curve" smooth="yes"/>
      <point x="150" y="1410"/>
      <point x="253" y="1506"/>
      <point x="620" y="1506" type="curve" smooth="yes"/>
      <point x="1100" y="1506"/>
      <point x="1143" y="1378"/>
    </contour>
  </outline>
</glyph>
<glyph name="at" format="1">
  <advance width="2050"/>
  <unicode hex="0040"/>
  <outline>
    <contour>
      <point x="1025" y="200" type="curve" smooth="yes"/>
      <point x="1252" y="200"/>
      <point x="1289" y="254"/>
      <point x="1289" y="376" type="curve" smooth="yes"/>
      <point x="1289" y="442"/>
      <point x="1279" y="543"/>
      <point x="1279" y="624" type="curve"/>
      <point x="1073" y="624" type="line" smooth="yes"/>
      <point x="1014" y="624"/>
      <point x="966" y="625"/>
      <point x="928" y="625" type="curve" smooth="yes"/>
      <point x="775" y="625"/>
      <point x="772" y="601"/>
      <point x="772" y="366" type="curve" smooth="yes"/>
      <point x="772" y="238"/>
      <point x="794" y="200"/>
    </contour>
    <contour>
      <point x="654" y="1014" type="curve" smooth="yes"/>
      <point x="654" y="1239"/>
      <point x="824" y="1266"/>
      <point x="1088" y="1266" type="curve" smooth="yes"/>
      <point x="1347" y="1266"/>
      <point x="1476" y="1159"/>
      <point x="1476" y="944" type="curve" smooth="yes"/>
      <point x="1476" y="215" type="line"/>
      <point x="1565" y="215"/>
      <point x="1622" y="217"/>
      <point x="1655" y="241" type="curve" smooth="yes"/>
      <point x="1713" y="284"/>
      <point x="1715" y="313"/>
      <point x="1715" y="670" type="curve" smooth="yes"/>
      <point x="1715" y="1250"/>
      <point x="1628" y="1472"/>
      <point x="1059" y="1472" type="curve" smooth="yes"/>
      <point x="506" y="1472"/>
      <point x="337" y="1230"/>
      <point x="337" y="659" type="curve" smooth="yes"/>
      <point x="337" y="74"/>
      <point x="467" y="-184"/>
      <point x="982" y="-184" type="curve" smooth="yes"/>
      <point x="1143" y="-184"/>
      <point x="1353" y="-148"/>
      <point x="1611" y="-77" type="curve"/>
      <point x="1659" y="-224" type="line"/>
      <point x="1476" y="-304"/>
      <point x="1274" y="-344"/>
      <point x="1054" y="-344" type="curve" smooth="yes"/>
      <point x="383" y="-344"/>
      <point x="147" y="-90"/>
      <point x="147" y="627" type="curve" smooth="yes"/>
      <point x="147" y="1322"/>
      <point x="389" y="1635"/>
      <point x="1040" y="1635" type="curve" smooth="yes"/>
      <point x="1737" y="1635"/>
      <point x="1903" y="1374"/>
      <point x="1903" y="662" type="curve" smooth="yes"/>
      <point x="1903" y="254"/>
      <point x="1874" y="87"/>
      <point x="1516" y="87" type="curve" smooth="yes"/>
      <point x="1415" y="87"/>
      <point x="1359" y="129"/>
      <point x="1350" y="212" type="curve"/>
      <point x="1327" y="111"/>
      <point x="1188" y="61"/>
      <point x="933" y="61" type="curve" smooth="yes"/>
      <point x="672" y="61"/>
      <point x="591" y="140"/>
      <point x="591" y="410" type="curve" smooth="yes"/>
      <point x="591" y="655"/>
      <point x="666" y="772"/>
      <point x="898" y="772" type="curve" smooth="yes"/>
      <point x="1001" y="772"/>
      <point x="1128" y="759"/>
      <point x="1279" y="732" type="curve"/>
      <point x="1279" y="959" type="line" smooth="yes"/>
      <point x="1279" y="1091"/>
      <point x="1239" y="1105"/>
      <point x="1140" y="1105" type="curve" smooth="yes"/>
      <point x="931" y="1105" type="line" smooth="yes"/>
      <point x="871" y="1105"/>
      <point x="825" y="1086"/>
      <point x="825" y="992" type="curve" smooth="yes"/>
      <point x="825" y="960"/>
      <point x="826" y="930"/>
      <point x="829" y="903" type="curve"/>
      <point x="666" y="903" type="line"/>
      <point x="658" y="943"/>
      <point x="654" y="980"/>
    </contour>
  </outline>
</glyph>
<glyph name="A" format="1">
  <advance width="1395"/>
  <unicode hex="0041"/>
  <outline>
    <contour>
      <point x="634" y="1490" type="move" name="top"/>
    </contour>
    <contour>
      <point x="1141" y="10" type="move" name="ogonek"/>
    </contour>
    <contour>
      <point x="590" y="982" type="curve" smooth="yes"/>
      <point x="456" y="525" type="line"/>
      <point x="922" y="525" type="line"/>
      <point x="846" y="796"/>
      <point x="769" y="1067"/>
      <point x="692" y="1338" type="curve"/>
      <point x="661" y="1227"/>
      <point x="625" y="1100"/>
    </contour>
    <contour>
      <point x="566" y="1490" type="line"/>
      <point x="837" y="1490" type="line"/>
      <point x="1283" y="0" type="line"/>
      <point x="1077" y="0" type="line"/>
      <point x="964" y="381" type="line"/>
      <point x="413" y="381" type="line"/>
      <point x="304" y="0" type="line"/>
      <point x="109" y="0" type="line"/>
    </contour>
  </outline>
</glyph>
<glyph name="B" format="1">
  <advance width="1358"/>
  <unicode hex="0042"/>
  <outline>
    <contour>
      <point x="1015" y="334" type="curve" smooth="yes"/>
      <point x="1015" y="344" type="line"/>
      <point x="1013" y="477" type="line" smooth="yes"/>
      <point x="1010" y="701"/>
      <point x="1026" y="729"/>
      <point x="596" y="729" type="curve" smooth="yes"/>
      <point x="362" y="729" type="line"/>
      <point x="362" y="151" type="line"/>
      <point x="744" y="151" type="line" smooth="yes"/>
      <point x="972" y="151"/>
      <point x="1015" y="198"/>
    </contour>
    <contour>
      <point x="960" y="989" type="curve" smooth="yes"/>
      <point x="960" y="1159" type="line" smooth="yes"/>
      <point x="960" y="1328"/>
      <point x="956" y="1338"/>
      <point x="631" y="1338" type="curve" smooth="yes"/>
      <point x="362" y="1338" type="line"/>
      <point x="362" y="860" type="line"/>
      <point x="563" y="860" type="line" smooth="yes"/>
      <point x="919" y="860"/>
      <point x="960" y="905"/>
    </contour>
    <contour>
      <point x="1211" y="429" type="curve" smooth="yes"/>
      <point x="1211" y="25"/>
      <point x="1127" y="0"/>
      <point x="695" y="0" type="curve" smooth="yes"/>
      <point x="161" y="0" type="line"/>
      <point x="161" y="1490" type="line"/>
      <point x="727" y="1490" type="line" smooth="yes"/>
      <point x="1010" y="1490"/>
      <point x="1155" y="1442"/>
      <point x="1157" y="1212" type="curve" smooth="yes"/>
      <point x="1158" y="1104" type="line" smooth="yes"/>
      <point x="1158" y="890"/>
      <point x="1126" y="834"/>
      <point x="946" y="803" type="curve"/>
      <point x="1180" y="779"/>
      <point x="1211" y="624"/>
    </contour>
  </outline>
</glyph>
<glyph name="C" format="1">
  <advance width="1383"/>
  <unicode hex="0043"/>
  <outline>
    <contour>
      <point x="662" y="1490" type="move" name="top"/>
    </contour>
    <contour>
      <point x="662" y="0" type="move" name="bottom"/>
    </contour>
    <contour>
      <point x="1062" y="462" type="curve"/>
      <point x="1236" y="436" type="line"/>
      <point x="1215" y="65"/>
      <point x="1122" y="-24"/>
      <point x="758" y="-24" type="curve" smooth="yes"/>
      <point x="165" y="-24"/>
      <point x="152" y="158"/>
      <point x="152" y="748" type="curve" smooth="yes"/>
      <point x="152" y="1397"/>
      <point x="173" y="1513"/>
      <point x="740" y="1513" type="curve" smooth="yes"/>
      <point x="1084" y="1513"/>
      <point x="1208" y="1444"/>
      <point x="1235" y="1078" type="curve"/>
      <point x="1060" y="1044" type="line"/>
      <point x="1029" y="1355"/>
      <point x="1005" y="1360"/>
      <point x="728" y="1360" type="curve" smooth="yes"/>
      <point x="476" y="1360"/>
      <point x="371" y="1347"/>
      <point x="364" y="1203" type="curve" smooth="yes"/>
      <point x="356" y="1027"/>
      <point x="355" y="847"/>
      <point x="355" y="664" type="curve" smooth="yes"/>
      <point x="355" y="536"/>
      <point x="356" y="411"/>
      <point x="364" y="289" type="curve" smooth="yes"/>
      <point x="371" y="184"/>
      <point x="430" y="130"/>
      <point x="729" y="130" type="curve" smooth="yes"/>
      <point x="1072" y="130"/>
      <point x="1041" y="208"/>
    </contour>
  </outline>
</glyph>
<glyph name="E" format="1">
  <advance width="1166"/>
  <unicode hex="0045"/>
  <outline>
    <contour>
      <point x="558" y="1490" type="move" name="top"/>
    </contour>
    <contour>
      <point x="558" y="0" type="move" name="bottom"/>
    </contour>
    <contour>
      <point x="1004" y="10" type="move" name="ogonek"/>
    </contour>
    <contour>
      <point x="364" y="153" type="line"/>
      <point x="1025" y="153" type="line"/>
      <point x="1005" y="0" type="line"/>
      <point x="161" y="0" type="line"/>
      <point x="161" y="1490" type="line"/>
      <point x="996" y="1490" type="line"/>
      <point x="1016" y="1336" type="line"/>
      <point x="364" y="1336" type="line"/>
      <point x="364" y="857" type="line"/>
      <point x="921" y="857" type="line"/>
      <point x="921" y="695" type="line"/>
      <point x="364" y="695" type="line"/>
    </contour>
  </outline>
</glyph>
<glyph name="F" format="1">
  <advance width="1102"/>
  <unicode hex="0046"/>
  <outline>
    <contour>
      <point x="161" y="1490" type="line"/>
      <point x="959" y="1490" type="line"/>
      <point x="979" y="1336" type="line"/>
      <point x="364" y="1336" type="line"/>
      <point x="364" y="850" type="line"/>
      <point x="888" y="850" type="line"/>
      <point x="888" y="688" type="line"/>
      <point x="364" y="688" type="line"/>
      <point x="364" y="0" type="line"/>
      <point x="161" y="0" type="line"/>
    </contour>
  </outline>
</glyph>
<glyph name="G" format="1">
  <advance width="1408"/>
  <unicode hex="0047"/>
  <outline>
    <contour>
      <point x="684" y="1490" type="move" name="top"/>
    </contour>
    <contour>
      <point x="684" y="0" type="move" name="bottom"/>
    </contour>
    <contour>
      <point x="817" y="594" type="line"/>
      <point x="800" y="745" type="line"/>
      <point x="1255" y="745" type="line"/>
      <point x="1255" y="106" type="line"/>
      <point x="1163" y="22"/>
      <point x="967" y="-24"/>
      <point x="680" y="-24" type="curve" smooth="yes"/>
      <point x="181" y="-24"/>
      <point x="151" y="127"/>
      <point x="151" y="744" type="curve" smooth="yes"/>
      <point x="151" y="1349"/>
      <point x="195" y="1513"/>
      <point x="725" y="1513" type="curve" smooth="yes"/>
      <point x="756" y="1513" type="line" smooth="yes"/>
      <point x="996" y="1513"/>
      <point x="1231" y="1506"/>
      <point x="1231" y="1146" type="curve" smooth="yes"/>
      <point x="1231" y="1129"/>
      <point x="1230" y="1112"/>
      <point x="1229" y="1096" type="curve"/>
      <point x="1050" y="1062" type="line"/>
      <point x="1039" y="1259" type="line" smooth="yes"/>
      <point x="1036" y="1348"/>
      <point x="946" y="1360"/>
      <point x="697" y="1360" type="curve" smooth="yes"/>
      <point x="429" y="1360"/>
      <point x="372" y="1319"/>
      <point x="364" y="1192" type="curve" smooth="yes"/>
      <point x="355" y="1055"/>
      <point x="355" y="914"/>
      <point x="355" y="772" type="curve" smooth="yes"/>
      <point x="355" y="628"/>
      <point x="358" y="488"/>
      <point x="364" y="352" type="curve" smooth="yes"/>
      <point x="372" y="167"/>
      <point x="369" y="130"/>
      <point x="691" y="130" type="curve" smooth="yes"/>
      <point x="916" y="130"/>
      <point x="1045" y="145"/>
      <point x="1070" y="176" type="curve"/>
      <point x="1070" y="176"/>
      <point x="1069" y="278"/>
      <point x="1069" y="594" type="curve"/>
    </contour>
  </outline>
</glyph>
<glyph name="I" format="1">
  <advance width="525"/>
  <unicode hex="0049"/>
  <outline>
    <contour>
      <point x="274" y="1490" type="move" name="top"/>
    </contour>
    <contour>
      <point x="492" y="10" type="move" name="ogonek"/>
    </contour>
    <contour>
      <point x="161" y="1490" type="line"/>
      <point x="364" y="1490" type="line"/>
      <point x="364" y="0" type="line"/>
      <point x="161" y="0" type="line"/>
    </contour>
  </outline>
</glyph>
<glyph name="J" format="1">
  <advance width="757"/>
  <unicode hex="004A"/>
  <outline>
    <contour>
      <point x="363" y="1490" type="move" name="top"/>
    </contour>
    <contour>
      <point x="396" y="307" type="curve" smooth="yes"/>
      <point x="396" y="1490" type="line"/>
      <point x="599" y="1490" type="line"/>
      <point x="599" y="432" type="line" smooth="yes"/>
      <point x="599" y="153"/>
      <point x="587" y="-24"/>
      <point x="348" y="-24" type="curve" smooth="yes"/>
      <point x="263" y="-24"/>
      <point x="185" y="-5"/>
      <point x="110" y="29" type="curve"/>
      <point x="131" y="183" type="line"/>
      <point x="197" y="158"/>
      <point x="248" y="148"/>
      <point x="286" y="148" type="curve" smooth="yes"/>
      <point x="381" y="148"/>
      <point x="396" y="219"/>
    </contour>
  </outline>
</glyph>
<glyph name="K" format="1">
  <advance width="1339"/>
  <unicode hex="004B"/>
  <outline>
    <contour>
      <point x="615" y="1490" type="move" name="top"/>
    </contour>
    <contour>
      <point x="615" y="0" type="move" name="bottom"/>
    </contour>
    <contour>
      <point x="1157" y="1490" type="line"/>
      <point x="599" y="829" type="line"/>
      <point x="1223" y="0" type="line"/>
      <point x="978" y="0" type="line"/>
      <point x="441" y="732" type="line"/>
      <point x="363" y="639" type="line"/>
      <point x="363" y="0" type="line"/>
      <point x="161" y="0" type="line"/>
      <point x="161" y="1490" type="line"/>
      <point x="363" y="1490" type="line"/>
      <point x="363" y="983" type="line" smooth="yes"/>
      <point x="363" y="926"/>
      <point x="362" y="856"/>
      <point x="362" y="802" type="curve"/>
      <point x="395" y="846"/>
      <point x="440" y="902"/>
      <point x="477" y="949" type="curve" smooth="yes"/>
      <point x="916" y="1490" type="line"/>
    </contour>
  </outline>
</glyph>
<glyph name="O" format="1">
  <advance width="1458"/>
  <unicode hex="004F"/>
  <outline>
    <contour>
      <point x="710" y="1490" type="move" name="top"/>
    </contour>
    <contour>
      <point x="729" y="1360" type="curve" smooth="yes"/>
      <point x="395" y="1360"/>
      <point x="364" y="1313"/>
      <point x="358" y="1097" type="curve" smooth="yes"/>
      <point x="355" y="1006"/>
      <point x="355" y="914"/>
      <point x="355" y="821" type="curve" smooth="yes"/>
      <point x="355" y="789"/>
      <point x="355" y="757"/>
      <point x="355" y="725" type="curve" smooth="yes"/>
      <point x="355" y="698" type="line" smooth="yes"/>
      <point x="355" y="451"/>
      <point x="360" y="202"/>
      <point x="461" y="159" type="curve" smooth="yes"/>
      <point x="507" y="140"/>
      <point x="613" y="130"/>
      <point x="729" y="130" type="curve" smooth="yes"/>
      <point x="845" y="130"/>
      <point x="951" y="140"/>
      <point x="997" y="159" type="curve" smooth="yes"/>
      <point x="1098" y="202"/>
      <point x="1103" y="451"/>
      <point x="1103" y="697" type="curve" smooth="yes"/>
      <point x="1103" y="737"/>
      <point x="1103" y="776"/>
      <point x="1103" y="816" type="curve" smooth="yes"/>
      <point x="1103" y="910"/>
      <point x="1103" y="1004"/>
      <point x="1100" y="1097" type="curve" smooth="yes"/>
      <point x="1094" y="1313"/>
      <point x="1063" y="1360"/>
    </contour>
    <contour>
      <point x="729" y="-24" type="curve" smooth="yes"/>
      <point x="159" y="-24"/>
      <point x="151" y="139"/>
      <point x="151" y="812" type="curve" smooth="yes"/>
      <point x="151" y="1367"/>
      <point x="230" y="1514"/>
      <point x="729" y="1514" type="curve" smooth="yes"/>
      <point x="1202" y="1514"/>
      <point x="1307" y="1378"/>
      <point x="1307" y="876" type="curve" smooth="yes"/>
      <point x="1307" y="813" type="line" smooth="yes"/>
      <point x="1307" y="139"/>
      <point x="1299" y="-24"/>
    </contour>
  </outline>
</glyph>
<glyph name="Q" format="1">
  <advance width="1444"/>
  <unicode hex="0051"/>
  <outline>
    <contour>
      <point x="722" y="-24" type="curve" smooth="yes"/>
      <point x="152" y="-24"/>
      <point x="144" y="139"/>
      <point x="144" y="812" type="curve" smooth="yes"/>
      <point x="144" y="1367"/>
      <point x="223" y="1514"/>
      <point x="722" y="1514" type="curve" smooth="yes"/>
      <point x="1195" y="1514"/>
      <point x="1300" y="1378"/>
      <point x="1300" y="876" type="curve" smooth="yes"/>
      <point x="1300" y="811" type="line" smooth="yes"/>
      <point x="1300" y="320"/>
      <point x="1295" y="100"/>
      <point x="1071" y="18" type="curve"/>
      <point x="1238" y="-243" type="line"/>
      <point x="1099" y="-358" type="line"/>
      <point x="876" y="-19" type="line"/>
      <point x="830" y="-23"/>
      <point x="779" y="-24"/>
    </contour>
    <contour>
      <point x="722" y="1360" type="curve" smooth="yes"/>
      <point x="388" y="1360"/>
      <point x="357" y="1313"/>
      <point x="351" y="1097" type="curve" smooth="yes"/>
      <point x="348" y="1006"/>
      <point x="348" y="914"/>
      <point x="348" y="821" type="curve" smooth="yes"/>
      <point x="348" y="789"/>
      <point x="348" y="757"/>
      <point x="348" y="725" type="curve" smooth="yes"/>
      <point x="348" y="698" type="line" smooth="yes"/>
      <point x="348" y="451"/>
      <point x="353" y="202"/>
      <point x="454" y="159" type="curve" smooth="yes"/>
      <point x="500" y="140"/>
      <point x="606" y="130"/>
      <point x="722" y="130" type="curve" smooth="yes"/>
      <point x="838" y="130"/>
      <point x="944" y="140"/>
      <point x="990" y="159" type="curve" smooth="yes"/>
      <point x="1091" y="202"/>
      <point x="1096" y="451"/>
      <point x="1096" y="697" type="curve" smooth="yes"/>
      <point x="1096" y="737"/>
      <point x="1096" y="776"/>
      <point x="1096" y="816" type="curve" smooth="yes"/>
      <point x="1096" y="910"/>
      <point x="1096" y="1004"/>
      <point x="1093" y="1097" type="curve" smooth="yes"/>
      <point x="1087" y="1313"/>
      <point x="1056" y="1360"/>
    </contour>
  </outline>
</glyph>
<glyph name="R" format="1">
  <advance width="1368"/>
  <unicode hex="0052"/>
  <outline>
    <contour>
      <point x="663" y="1490" type="move" name="top"/>
    </contour>
    <contour>
      <point x="663" y="0" type="move" name="bottom"/>
    </contour>
    <contour>
      <point x="994" y="1001" type="curve" smooth="yes"/>
      <point x="994" y="1140" type="line" smooth="yes"/>
      <point x="994" y="1293"/>
      <point x="980" y="1337"/>
      <point x="700" y="1337" type="curve" smooth="yes"/>
      <point x="363" y="1337" type="line"/>
      <point x="363" y="774" type="line"/>
      <point x="712" y="774" type="line" smooth="yes"/>
      <point x="965" y="774"/>
      <point x="994" y="831"/>
    </contour>
    <contour>
      <point x="1194" y="1080" type="curve" smooth="yes"/>
      <point x="1194" y="809"/>
      <point x="1079" y="709"/>
      <point x="921" y="683" type="curve"/>
      <point x="1049" y="657"/>
      <point x="1125" y="576"/>
      <point x="1149" y="439" type="curve" smooth="yes"/>
      <point x="1226" y="0" type="line"/>
      <point x="1009" y="0" type="line"/>
      <point x="974" y="214"/>
      <point x="971" y="521"/>
      <point x="849" y="592" type="curve" smooth="yes"/>
      <point x="811" y="614"/>
      <point x="757" y="615"/>
      <point x="694" y="615" type="curve" smooth="yes"/>
      <point x="687" y="615"/>
      <point x="679" y="615"/>
      <point x="672" y="615" type="curve" smooth="yes"/>
      <point x="363" y="615" type="line"/>
      <point x="363" y="0" type="line"/>
      <point x="161" y="0" type="line"/>
      <point x="161" y="1490" type="line"/>
      <point x="616" y="1490" type="line" smooth="yes"/>
      <point x="1004" y="1490"/>
      <point x="1194" y="1459"/>
    </contour>
  </outline>
</glyph>
<glyph name="S" format="1">
  <advance width="1322"/>
  <unicode hex="0053"/>
  <outline>
    <contour>
      <point x="627" y="1490" type="move" name="top"/>
    </contour>
    <contour>
      <point x="627" y="0" type="move" name="bottom"/>
    </contour>
    <contour>
      <point x="1174" y="437" type="curve" smooth="yes"/>
      <point x="1174" y="6"/>
      <point x="1030" y="-24"/>
      <point x="655" y="-24" type="curve" smooth="yes"/>
      <point x="187" y="-24"/>
      <point x="162" y="69"/>
      <point x="149" y="380" type="curve"/>
      <point x="334" y="410" type="line"/>
      <point x="359" y="190"/>
      <point x="326" y="140"/>
      <point x="659" y="140" type="curve" smooth="yes"/>
      <point x="941" y="140"/>
      <point x="973" y="182"/>
      <point x="973" y="383" type="curve" smooth="yes"/>
      <point x="973" y="404" type="line" smooth="yes"/>
      <point x="972" y="571"/>
      <point x="962" y="635"/>
      <point x="901" y="646" type="curve" smooth="yes"/>
      <point x="403" y="733" type="line" smooth="yes"/>
      <point x="229" y="763"/>
      <point x="168" y="853"/>
      <point x="168" y="1081" type="curve" smooth="yes"/>
      <point x="168" y="1442"/>
      <point x="277" y="1513"/>
      <point x="649" y="1513" type="curve" smooth="yes"/>
      <point x="999" y="1513"/>
      <point x="1138" y="1469"/>
      <point x="1138" y="1170" type="curve"/>
      <point x="960" y="1129" type="line"/>
      <point x="944" y="1309"/>
      <point x="966" y="1344"/>
      <point x="681" y="1344" type="curve" smooth="yes"/>
      <point x="394" y="1344"/>
      <point x="362" y="1306"/>
      <point x="362" y="1199" type="curve" smooth="yes"/>
      <point x="362" y="1026" type="line" smooth="yes"/>
      <point x="362" y="974"/>
      <point x="379" y="929"/>
      <point x="444" y="918" type="curve" smooth="yes"/>
      <point x="802" y="857" type="line" smooth="yes"/>
      <point x="1056" y="814"/>
      <point x="1174" y="783"/>
    </contour>
  </outline>
</glyph>
<glyph name="T" format="1">
  <advance width="1101"/>
  <unicode hex="0054"/>
  <outline>
    <contour>
      <point x="64" y="1490" type="line"/>
      <point x="1037" y="1490" type="line"/>
      <point x="1037" y="1336" type="line"/>
      <point x="648" y="1336" type="line"/>
      <point x="648" y="0" type="line"/>
      <point x="445" y="0" type="line"/>
      <point x="445" y="1336" type="line"/>
      <point x="64" y="1336" type="line"/>
    </contour>
    <contour>
      <point x="450" y="1490" type="move" name="top"/>
    </contour>
    <contour>
      <point x="450" y="0" type="move" name="bottom"/>
    </contour>
    <contour>
      <point x="450" y="745" type="move" name="center"/>
    </contour>
  </outline>
</glyph>
<glyph name="U" format="1">
  <advance width="1440"/>
  <unicode hex="0055"/>
  <outline>
    <contour>
      <point x="715" y="1490" type="move" name="top"/>
    </contour>
    <contour>
      <point x="1286" y="10" type="move" name="ogonek"/>
    </contour>
    <contour>
      <point x="1081" y="435" type="curve" smooth="yes"/>
      <point x="1080" y="1490" type="line"/>
      <point x="1283" y="1490" type="line"/>
      <point x="1283" y="557" type="line" smooth="yes"/>
      <point x="1283" y="88"/>
      <point x="1162" y="-24"/>
      <point x="719" y="-24" type="curve" smooth="yes"/>
      <point x="296" y="-24"/>
      <point x="158" y="69"/>
      <point x="158" y="557" type="curve" smooth="yes"/>
      <point x="158" y="1490" type="line"/>
      <point x="361" y="1490" type="line"/>
      <point x="361" y="531" type="line" smooth="yes"/>
      <point x="361" y="177"/>
      <point x="362" y="130"/>
      <point x="720" y="130" type="curve" smooth="yes"/>
      <point x="1047" y="130"/>
      <point x="1081" y="188"/>
    </contour>
  </outline>
</glyph>
<glyph name="V" format="1">
  <advance width="1390"/>
  <unicode hex="0056"/>
  <outline>
    <contour>
      <point x="694" y="259" type="line"/>
      <point x="1065" y="1490" type="line"/>
      <point x="1285" y="1490" type="line"/>
      <point x="795" y="0" type="line"/>
      <point x="585" y="0" type="line"/>
      <point x="108" y="1490" type="line"/>
      <point x="323" y="1490" type="line"/>
    </contour>
  </outline>
</glyph>
<glyph name="W" format="1">
  <advance width="1879"/>
  <unicode hex="0057"/>
  <outline>
    <contour>
      <point x="870" y="1490" type="move" name="top"/>
    </contour>
    <contour>
      <point x="1346" y="279" type="line"/>
      <point x="1574" y="1490" type="line"/>
      <point x="1762" y="1490" type="line"/>
      <point x="1446" y="0" type="line"/>
      <point x="1229" y="0" type="line"/>
      <point x="945" y="1173" type="line"/>
      <point x="663" y="0" type="line"/>
      <point x="447" y="0" type="line"/>
      <point x="119" y="1490" type="line"/>
      <point x="333" y="1490" type="line"/>
      <point x="567" y="279" type="line"/>
      <point x="852" y="1490" type="line"/>
      <point x="1053" y="1490" type="line"/>
    </contour>
  </outline>
</glyph>
<glyph name="X" format="1">
  <advance width="1335"/>
  <unicode hex="0058"/>
  <outline>
    <contour>
      <point x="1192" y="1490" type="line"/>
      <point x="785" y="766" type="line"/>
      <point x="1213" y="0" type="line"/>
      <point x="991" y="0" type="line"/>
      <point x="667" y="590" type="line"/>
      <point x="344" y="0" type="line"/>
      <point x="123" y="0" type="line"/>
      <point x="552" y="766" type="line"/>
      <point x="144" y="1490" type="line"/>
      <point x="361" y="1490" type="line"/>
      <point x="667" y="934" type="line"/>
      <point x="975" y="1490" type="line"/>
    </contour>
  </outline>
</glyph>
<glyph name="Y" format="1">
  <advance width="1286"/>
  <unicode hex="0059"/>
  <outline>
    <contour>
      <point x="541" y="1490" type="move" name="top"/>
    </contour>
    <contour>
      <point x="645" y="727" type="line"/>
      <point x="976" y="1490" type="line"/>
      <point x="1190" y="1490" type="line"/>
      <point x="739" y="518" type="line"/>
      <point x="739" y="0" type="line"/>
      <point x="537" y="0" type="line"/>
      <point x="537" y="518" type="line"/>
      <point x="99" y="1490" type="line"/>
      <point x="320" y="1490" type="line"/>
    </contour>
  </outline>
</glyph>
<glyph name="Z" format="1">
  <advance width="1146"/>
  <unicode hex="005A"/>
  <outline>
    <contour>
      <point x="345" y="151" type="curve"/>
      <point x="1030" y="151" type="line"/>
      <point x="1030" y="0" type="line"/>
      <point x="141" y="0" type="line"/>
      <point x="131" y="176" type="line"/>
      <point x="364" y="563"/>
      <point x="595" y="953"/>
      <point x="830" y="1338" type="curve"/>
      <point x="196" y="1338" type="line"/>
      <point x="179" y="1490" type="line"/>
      <point x="1019" y="1490" type="line"/>
      <point x="1030" y="1311" type="line"/>
      <point x="802" y="924"/>
      <point x="576" y="535"/>
    </contour>
    <contour>
      <point x="544" y="1490" type="move" name="top"/>
    </contour>
  </outline>
</glyph>
<glyph name="bracketleft" format="1">
  <advance width="723"/>
  <unicode hex="005B"/>
  <outline>
    <contour>
      <point x="352" y="-105" type="line"/>
      <point x="607" y="-105" type="line"/>
      <point x="607" y="-257" type="line"/>
      <point x="161" y="-257" type="line"/>
      <point x="161" y="1653" type="line"/>
      <point x="607" y="1653" type="line"/>
      <point x="607" y="1502" type="line"/>
      <point x="352" y="1502" type="line"/>
    </contour>
  </outline>
</glyph>
<glyph name="bracketright" format="1">
  <advance width="721"/>
  <unicode hex="005D"/>
  <outline>
    <contour>
      <point x="115" y="1653" type="line"/>
      <point x="560" y="1653" type="line"/>
      <point x="560" y="-257" type="line"/>
      <point x="115" y="-257" type="line"/>
      <point x="115" y="-105" type="line"/>
      <point x="369" y="-105" type="line"/>
      <point x="369" y="1502" type="line"/>
      <point x="115" y="1502" type="line"/>
    </contour>
  </outline>
</glyph>
<glyph name="underscore" format="1">
  <advance width="1078"/>
  <unicode hex="005F"/>
  <outline>
    <contour>
      <point x="956" y="-127" type="line"/>
      <point x="119" y="-127" type="line"/>
      <point x="119" y="0" type="line"/>
      <point x="956" y="0" type="line"/>
    </contour>
  </outline>
</glyph>
<glyph name="a" format="1">
  <advance width="1148"/>
  <unicode hex="0061"/>
  <outline>
    <contour>
      <point x="555" y="1097" type="move" name="top"/>
    </contour>
    <contour>
      <point x="999" y="10" type="move" name="ogonek"/>
    </contour>
    <contour>
      <point x="800" y="314" type="curve" smooth="yes"/>
      <point x="800" y="485" type="line"/>
      <point x="398" y="485"/>
      <point x="320" y="443"/>
      <point x="320" y="354" type="curve" smooth="yes"/>
      <point x="320" y="341" type="line" smooth="yes"/>
      <point x="320" y="155"/>
      <point x="322" y="122"/>
      <point x="498" y="122" type="curve" smooth="yes"/>
      <point x="724" y="122"/>
      <point x="800" y="203"/>
    </contour>
    <contour>
      <point x="997" y="726" type="curve" smooth="yes"/>
      <point x="997" y="0" type="line"/>
      <point x="841" y="0" type="line"/>
      <point x="809" y="157" type="line"/>
      <point x="766" y="10"/>
      <point x="654" y="-15"/>
      <point x="471" y="-15" type="curve" smooth="yes"/>
      <point x="205" y="-15"/>
      <point x="138" y="86"/>
      <point x="138" y="354" type="curve" smooth="yes"/>
      <point x="138" y="577"/>
      <point x="407" y="604"/>
      <point x="800" y="604" type="curve"/>
      <point x="800" y="901" type="line" smooth="yes"/>
      <point x="800" y="970"/>
      <point x="744" y="991"/>
      <point x="581" y="991" type="curve" smooth="yes"/>
      <point x="341" y="991"/>
      <point x="360" y="964"/>
      <point x="355" y="824" type="curve"/>
      <point x="202" y="830" type="line"/>
      <point x="200" y="846"/>
      <point x="200" y="862"/>
      <point x="200" y="877" type="curve" smooth="yes"/>
      <point x="200" y="1104"/>
      <point x="359" y="1128"/>
      <point x="594" y="1128" type="curve" smooth="yes"/>
      <point x="906" y="1128"/>
      <point x="997" y="1037"/>
    </contour>
  </outline>
</glyph>
<glyph name="c" format="1">
  <advance width="1152"/>
  <unicode hex="0063"/>
  <outline>
    <contour>
      <point x="1006.0" y="781.0" type="curve"/>
      <point x="844.0" y="754.0" type="line"/>
      <point x="823.0" y="893.0" type="line" smooth="yes"/>
      <point x="812.0" y="963.0"/>
      <point x="814.0" y="989.0"/>
      <point x="598.0" y="989.0" type="curve" smooth="yes"/>
      <point x="507.0" y="989.0"/>
      <point x="449.0" y="980.0"/>
      <point x="420.0" y="974.0" type="curve" smooth="yes"/>
      <point x="355.0" y="959.0"/>
      <point x="332.0" y="822.0"/>
      <point x="332.0" y="680.0" type="curve" smooth="yes"/>
      <point x="332.0" y="468.0" type="line" smooth="yes"/>
      <point x="332.0" y="144.0"/>
      <point x="365.0" y="123.0"/>
      <point x="580.0" y="123.0" type="curve" smooth="yes"/>
      <point x="845.0" y="123.0"/>
      <point x="823.0" y="196.0"/>
      <point x="842.0" y="365.0" type="curve"/>
      <point x="1006.0" y="337.0" type="line"/>
      <point x="985.0" y="54.0"/>
      <point x="946.0" y="-15.0"/>
      <point x="589.0" y="-15.0" type="curve" smooth="yes"/>
      <point x="151.0" y="-15.0"/>
      <point x="145.0" y="136.0"/>
      <point x="145.0" y="619.0" type="curve" smooth="yes"/>
      <point x="145.0" y="1024.0"/>
      <point x="203.0" y="1128.0"/>
      <point x="588.0" y="1128.0" type="curve" smooth="yes"/>
      <point x="893.0" y="1128.0"/>
      <point x="992.0" y="1063.0"/>
    </contour>
    <contour>
      <point x="547.0" y="1097.0" type="move" name="top"/>
    </contour>
    <contour>
      <point x="547.0" y="0.0" type="move" name="bottom"/>
    </contour>
  </outline>
</glyph>
<glyph name="d" format="1">
  <advance width="1205"/>
  <unicode hex="0064"/>
  <outline>
    <contour>
      <point x="590" y="549" type="move" name="center"/>
    </contour>
    <contour>
      <point x="847" y="255" type="curve" smooth="yes"/>
      <point x="847" y="838" type="line" smooth="yes"/>
      <point x="847" y="954"/>
      <point x="789" y="990"/>
      <point x="590" y="990" type="curve" smooth="yes"/>
      <point x="505" y="990"/>
      <point x="461" y="986"/>
      <point x="418" y="973" type="curve" smooth="yes"/>
      <point x="352" y="952"/>
      <point x="340" y="840"/>
      <point x="340" y="706" type="curve" smooth="yes"/>
      <point x="340" y="542"/>
      <point x="340" y="385"/>
      <point x="346" y="233" type="curve" smooth="yes"/>
      <point x="349" y="146"/>
      <point x="399" y="122"/>
      <point x="590" y="122" type="curve" smooth="yes"/>
      <point x="773" y="122"/>
      <point x="847" y="150"/>
    </contour>
    <contour>
      <point x="847" y="1519" type="line"/>
      <point x="1044" y="1535" type="line"/>
      <point x="1044" y="0" type="line"/>
      <point x="864" y="0" type="line"/>
      <point x="845" y="138" type="line"/>
      <point x="805" y="38"/>
      <point x="700" y="-15"/>
      <point x="526" y="-15" type="curve" smooth="yes"/>
      <point x="153" y="-15"/>
      <point x="143" y="198"/>
      <point x="143" y="566" type="curve" smooth="yes"/>
      <point x="143" y="968"/>
      <point x="186" y="1128"/>
      <point x="544" y="1128" type="curve" smooth="yes"/>
      <point x="717" y="1128"/>
      <point x="806" y="1083"/>
      <point x="847" y="984" type="curve"/>
    </contour>
  </outline>
</glyph>
<glyph name="e" format="1">
  <advance width="1143"/>
  <unicode hex="0065"/>
  <outline>
    <contour>
      <point x="329" y="655" type="curve"/>
      <point x="825" y="655" type="line"/>
      <point x="824" y="735"/>
      <point x="821" y="813"/>
      <point x="815" y="889" type="curve" smooth="yes"/>
      <point x="809" y="971"/>
      <point x="755" y="991"/>
      <point x="585" y="991" type="curve" smooth="yes"/>
      <point x="491" y="991"/>
      <point x="431" y="984"/>
      <point x="404" y="975" type="curve" smooth="yes"/>
      <point x="324" y="950"/>
      <point x="332" y="776"/>
    </contour>
    <contour>
      <point x="1022" y="564" type="curve"/>
      <point x="973" y="559"/>
      <point x="922" y="550"/>
      <point x="873" y="550" type="curve" smooth="yes"/>
      <point x="328" y="550" type="line"/>
      <point x="329" y="442"/>
      <point x="330" y="336"/>
      <point x="336" y="232" type="curve" smooth="yes"/>
      <point x="341" y="142"/>
      <point x="398" y="122"/>
      <point x="598" y="122" type="curve" smooth="yes"/>
      <point x="870" y="122"/>
      <point x="824" y="206"/>
      <point x="842" y="334" type="curve"/>
      <point x="995" y="306" type="line"/>
      <point x="986" y="34"/>
      <point x="912" y="-15"/>
      <point x="615" y="-15" type="curve" smooth="yes"/>
      <point x="147" y="-15"/>
      <point x="132" y="147"/>
      <point x="132" y="534" type="curve" smooth="yes"/>
      <point x="132" y="1022"/>
      <point x="158" y="1128"/>
      <point x="586" y="1128" type="curve" smooth="yes"/>
      <point x="984" y="1128"/>
      <point x="1022" y="1030"/>
    </contour>
    <contour>
      <point x="551" y="1097" type="move" name="top"/>
    </contour>
    <contour>
      <point x="551" y="0" type="move" name="bottom"/>
    </contour>
    <contour>
      <point x="1001" y="10" type="move" name="ogonek"/>
    </contour>
  </outline>
</glyph>
<glyph name="f" format="1">
  <advance width="721"/>
  <unicode hex="0066"/>
  <outline>
    <contour>
      <point x="652" y="1505" type="curve"/>
      <point x="652" y="1362" type="line"/>
      <point x="616" y="1364"/>
      <point x="581" y="1365"/>
      <point x="548" y="1365" type="curve" smooth="yes"/>
      <point x="525" y="1365" type="line" smooth="yes"/>
      <point x="456" y="1365"/>
      <point x="447" y="1359"/>
      <point x="447" y="1235" type="curve" smooth="yes"/>
      <point x="447" y="1200"/>
      <point x="448" y="1155"/>
      <point x="448" y="1097" type="curve"/>
      <point x="646" y="1097" type="line"/>
      <point x="646" y="984" type="line"/>
      <point x="448" y="984" type="line"/>
      <point x="448" y="0" type="line"/>
      <point x="251" y="0" type="line"/>
      <point x="251" y="984" type="line"/>
      <point x="122" y="984" type="line"/>
      <point x="122" y="1097" type="line"/>
      <point x="251" y="1097" type="line"/>
      <point x="251" y="1416"/>
      <point x="260" y="1522"/>
      <point x="482" y="1522" type="curve" smooth="yes"/>
      <point x="533" y="1522"/>
      <point x="589" y="1517"/>
    </contour>
  </outline>
</glyph>
<glyph name="g" format="1">
  <advance width="1195"/>
  <unicode hex="0067"/>
  <outline>
    <contour>
      <point x="584" y="1097" type="move" name="top"/>
    </contour>
    <contour>
      <point x="588" y="990" type="curve" smooth="yes"/>
      <point x="368" y="990"/>
      <point x="340" y="963"/>
      <point x="340" y="746" type="curve" smooth="yes"/>
      <point x="340" y="567"/>
      <point x="340" y="403"/>
      <point x="348" y="242" type="curve" smooth="yes"/>
      <point x="352" y="152"/>
      <point x="395" y="134"/>
      <point x="609" y="134" type="curve" smooth="yes"/>
      <point x="714" y="134"/>
      <point x="842" y="151"/>
      <point x="842" y="223" type="curve" smooth="yes"/>
      <point x="842" y="833" type="line" smooth="yes"/>
      <point x="842" y="942"/>
      <point x="784" y="990"/>
    </contour>
    <contour>
      <point x="841" y="975" type="curve"/>
      <point x="860" y="1097" type="line"/>
      <point x="1039" y="1097" type="line"/>
      <point x="1039" y="139" type="line" smooth="yes"/>
      <point x="1039" y="-235"/>
      <point x="975" y="-357"/>
      <point x="604" y="-357" type="curve" smooth="yes"/>
      <point x="475" y="-357"/>
      <point x="371" y="-344"/>
      <point x="292" y="-316" type="curve"/>
      <point x="305" y="-180" type="line"/>
      <point x="377" y="-200"/>
      <point x="465" y="-211"/>
      <point x="571" y="-211" type="curve" smooth="yes"/>
      <point x="819" y="-211"/>
      <point x="842" y="-148"/>
      <point x="842" y="-48" type="curve" smooth="yes"/>
      <point x="841" y="131" type="line"/>
      <point x="805" y="38"/>
      <point x="723" y="-3"/>
      <point x="562" y="-3" type="curve" smooth="yes"/>
      <point x="159" y="-3"/>
      <point x="145" y="174"/>
      <point x="145" y="524" type="curve" smooth="yes"/>
      <point x="145" y="976"/>
      <point x="160" y="1125"/>
      <point x="516" y="1125" type="curve" smooth="yes"/>
      <point x="687" y="1125"/>
      <point x="792" y="1082"/>
    </contour>
  </outline>
</glyph>
<glyph name="h" format="1">
  <advance width="1188"/>
  <unicode hex="0068"/>
  <outline>
    <contour>
      <point x="591" y="1097" type="move" name="top"/>
    </contour>
    <contour>
      <point x="591" y="549" type="move" name="center"/>
    </contour>
    <contour>
      <point x="1036" y="629" type="curve" smooth="yes"/>
      <point x="1036" y="0" type="line"/>
      <point x="839" y="0" type="line"/>
      <point x="839" y="666" type="line" smooth="yes"/>
      <point x="839" y="733"/>
      <point x="842" y="787"/>
      <point x="842" y="830" type="curve" smooth="yes"/>
      <point x="842" y="952"/>
      <point x="814" y="990"/>
      <point x="590" y="990" type="curve" smooth="yes"/>
      <point x="490" y="990"/>
      <point x="379" y="969"/>
      <point x="373" y="896" type="curve" smooth="yes"/>
      <point x="365" y="793"/>
      <point x="359" y="684"/>
      <point x="359" y="572" type="curve" smooth="yes"/>
      <point x="359" y="0" type="line"/>
      <point x="161" y="0" type="line"/>
      <point x="161" y="1486" type="line"/>
      <point x="359" y="1502" type="line"/>
      <point x="359" y="1014" type="line"/>
      <point x="407" y="1090"/>
      <point x="508" y="1128"/>
      <point x="657" y="1128" type="curve" smooth="yes"/>
      <point x="1011" y="1128"/>
      <point x="1037" y="990"/>
      <point x="1037" y="756" type="curve" smooth="yes"/>
      <point x="1037" y="717"/>
      <point x="1036" y="674"/>
    </contour>
  </outline>
</glyph>
<glyph name="i" format="1">
  <advance width="547"/>
  <unicode hex="0069"/>
  <outline>
    <contour>
      <point x="181" y="1348" type="line"/>
      <point x="181" y="1521" type="line"/>
      <point x="378" y="1521" type="line"/>
      <point x="378" y="1348" type="line"/>
    </contour>
    <contour>
      <point x="181" y="1097" type="line"/>
      <point x="378" y="1097" type="line"/>
      <point x="378" y="0" type="line"/>
      <point x="181" y="0" type="line"/>
    </contour>
  </outline>
</glyph>
<glyph name="j" format="1">
  <advance width="576"/>
  <unicode hex="006A"/>
  <outline>
    <contour>
      <point x="220" y="1348" type="line"/>
      <point x="220" y="1521" type="line"/>
      <point x="419" y="1521" type="line"/>
      <point x="419" y="1348" type="line"/>
    </contour>
    <contour>
      <point x="221" y="-64" type="curve" smooth="yes"/>
      <point x="221" y="1097" type="line"/>
      <point x="418" y="1097" type="line"/>
      <point x="418" y="61" type="line" smooth="yes"/>
      <point x="418" y="-200"/>
      <point x="361" y="-302"/>
      <point x="163" y="-302" type="curve" smooth="yes"/>
      <point x="132" y="-302"/>
      <point x="96" y="-299"/>
      <point x="57" y="-294" type="curve"/>
      <point x="52" y="-172" type="line"/>
      <point x="133" y="-168"/>
      <point x="221" y="-188"/>
    </contour>
  </outline>
</glyph>
<glyph name="k" format="1">
  <advance width="1179"/>
  <unicode hex="006B"/>
  <outline>
    <contour>
      <point x="538" y="0" type="move" name="bottom"/>
    </contour>
    <contour>
      <point x="1014" y="1097" type="line"/>
      <point x="601" y="658" type="line"/>
      <point x="1050" y="0" type="line"/>
      <point x="833" y="0" type="line"/>
      <point x="451" y="572" type="line"/>
      <point x="359" y="469" type="line"/>
      <point x="359" y="0" type="line"/>
      <point x="161" y="0" type="line"/>
      <point x="161" y="1486" type="line"/>
      <point x="359" y="1502" type="line"/>
      <point x="359" y="782" type="line" smooth="yes"/>
      <point x="359" y="732"/>
      <point x="358" y="674"/>
      <point x="358" y="625" type="curve"/>
      <point x="414" y="685"/>
      <point x="472" y="750"/>
      <point x="529" y="812" type="curve" smooth="yes"/>
      <point x="790" y="1097" type="line"/>
    </contour>
  </outline>
</glyph>
<glyph name="l" format="1">
  <advance width="519"/>
  <unicode hex="006C"/>
  <outline>
    <contour>
      <point x="259" y="1097" type="move" name="top"/>
    </contour>
    <contour>
      <point x="259" y="0" type="move" name="bottom"/>
    </contour>
    <contour>
      <point x="498" y="1097" type="move" name="topright"/>
    </contour>
    <contour>
      <point x="161" y="1486" type="line"/>
      <point x="358" y="1502" type="line"/>
      <point x="358" y="0" type="line"/>
      <point x="161" y="0" type="line"/>
    </contour>
  </outline>
</glyph>
<glyph name="m" format="1">
  <advance width="1763"/>
  <unicode hex="006D"/>
  <outline>
    <contour>
      <point x="1612" y="673" type="curve" smooth="yes"/>
      <point x="1612" y="0" type="line"/>
      <point x="1415" y="0" type="line"/>
      <point x="1415" y="666" type="line" smooth="yes"/>
      <point x="1415" y="727"/>
      <point x="1418" y="779"/>
      <point x="1418" y="838" type="curve" smooth="yes"/>
      <point x="1418" y="918"/>
      <point x="1405" y="990"/>
      <point x="1235" y="990" type="curve" smooth="yes"/>
      <point x="1011" y="990"/>
      <point x="983" y="926"/>
      <point x="983" y="784" type="curve" smooth="yes"/>
      <point x="983" y="736"/>
      <point x="986" y="680"/>
      <point x="986" y="614" type="curve" smooth="yes"/>
      <point x="986" y="0" type="line"/>
      <point x="789" y="0" type="line"/>
      <point x="789" y="730" type="line" smooth="yes"/>
      <point x="789" y="936"/>
      <point x="784" y="990"/>
      <point x="566" y="990" type="curve" smooth="yes"/>
      <point x="478" y="990"/>
      <point x="372" y="970"/>
      <point x="366" y="897" type="curve" smooth="yes"/>
      <point x="359" y="805"/>
      <point x="353" y="707"/>
      <point x="353" y="605" type="curve" smooth="yes"/>
      <point x="353" y="0" type="line"/>
      <point x="156" y="0" type="line"/>
      <point x="156" y="1097" type="line"/>
      <point x="336" y="1097" type="line"/>
      <point x="355" y="977" type="line"/>
      <point x="411" y="1090"/>
      <point x="514" y="1126"/>
      <point x="660" y="1126" type="curve" smooth="yes"/>
      <point x="807" y="1126"/>
      <point x="896" y="1084"/>
      <point x="938" y="972" type="curve"/>
      <point x="991" y="1075"/>
      <point x="1093" y="1128"/>
      <point x="1254" y="1128" type="curve" smooth="yes"/>
      <point x="1556" y="1128"/>
      <point x="1612" y="1026"/>
    </contour>
  </outline>
</glyph>
<glyph name="n" format="1">
  <advance width="1174"/>
  <unicode hex="006E"/>
  <outline>
    <contour>
      <point x="586" y="1097" type="move" name="top"/>
    </contour>
    <contour>
      <point x="586" y="0" type="move" name="bottom"/>
    </contour>
    <contour>
      <point x="1024" y="609" type="curve" smooth="yes"/>
      <point x="1024" y="0" type="line"/>
      <point x="827" y="0" type="line"/>
      <point x="827" y="664" type="line" smooth="yes"/>
      <point x="827" y="971"/>
      <point x="816" y="990"/>
      <point x="649" y="990" type="curve" smooth="yes"/>
      <point x="393" y="990"/>
      <point x="347" y="924"/>
      <point x="347" y="780" type="curve" smooth="yes"/>
      <point x="347" y="723"/>
      <point x="353" y="660"/>
      <point x="353" y="585" type="curve" smooth="yes"/>
      <point x="353" y="0" type="line"/>
      <point x="156" y="0" type="line"/>
      <point x="156" y="1097" type="line"/>
      <point x="336" y="1097" type="line"/>
      <point x="355" y="974" type="line"/>
      <point x="392" y="1091"/>
      <point x="536" y="1128"/>
      <point x="682" y="1128" type="curve" smooth="yes"/>
      <point x="990" y="1128"/>
      <point x="1024" y="974"/>
    </contour>
  </outline>
</glyph>
<glyph name="o" format="1">
  <advance width="1215"/>
  <unicode hex="006F"/>
  <outline>
    <contour>
      <point x="586" y="1097" type="move" name="top"/>
    </contour>
    <contour>
      <point x="607" y="-15" type="curve" smooth="yes"/>
      <point x="172" y="-15"/>
      <point x="146" y="101"/>
      <point x="146" y="558" type="curve" smooth="yes"/>
      <point x="146" y="1035"/>
      <point x="192" y="1128"/>
      <point x="608" y="1128" type="curve" smooth="yes"/>
      <point x="1024" y="1128"/>
      <point x="1070" y="1035"/>
      <point x="1070" y="558" type="curve" smooth="yes"/>
      <point x="1070" y="100"/>
      <point x="1043" y="-15"/>
    </contour>
    <contour>
      <point x="609" y="123" type="curve" smooth="yes"/>
      <point x="786" y="123"/>
      <point x="862" y="140"/>
      <point x="862" y="215" type="curve" smooth="yes"/>
      <point x="862" y="319"/>
      <point x="873" y="437"/>
      <point x="873" y="546" type="curve" smooth="yes"/>
      <point x="873" y="667"/>
      <point x="863" y="782"/>
      <point x="863" y="895" type="curve" smooth="yes"/>
      <point x="863" y="989"/>
      <point x="727" y="989"/>
      <point x="608" y="989" type="curve" smooth="yes"/>
      <point x="489" y="989"/>
      <point x="353" y="989"/>
      <point x="353" y="895" type="curve" smooth="yes"/>
      <point x="353" y="782"/>
      <point x="343" y="667"/>
      <point x="343" y="546" type="curve" smooth="yes"/>
      <point x="343" y="437"/>
      <point x="354" y="319"/>
      <point x="354" y="215" type="curve" smooth="yes"/>
      <point x="354" y="142"/>
      <point x="432" y="123"/>
    </contour>
  </outline>
</glyph>
<glyph name="p" format="1">
  <advance width="1201"/>
  <unicode hex="0070"/>
  <outline>
    <contour>
      <point x="610" y="122" type="curve" smooth="yes"/>
      <point x="856" y="122"/>
      <point x="862" y="156"/>
      <point x="862" y="415" type="curve" smooth="yes"/>
      <point x="862" y="484"/>
      <point x="860" y="553"/>
      <point x="860" y="606" type="curve" smooth="yes"/>
      <point x="859" y="697"/>
      <point x="859" y="786"/>
      <point x="854" y="872" type="curve" smooth="yes"/>
      <point x="849" y="964"/>
      <point x="803" y="990"/>
      <point x="610" y="990" type="curve" smooth="yes"/>
      <point x="356" y="990"/>
      <point x="350" y="946"/>
      <point x="350" y="693" type="curve" smooth="yes"/>
      <point x="350" y="615"/>
      <point x="353" y="531"/>
      <point x="353" y="460" type="curve" smooth="yes"/>
      <point x="353" y="395"/>
      <point x="348" y="340"/>
      <point x="348" y="294" type="curve" smooth="yes"/>
      <point x="348" y="181"/>
      <point x="392" y="122"/>
    </contour>
    <contour>
      <point x="1057" y="541" type="curve" smooth="yes"/>
      <point x="1057" y="145"/>
      <point x="1015" y="-15"/>
      <point x="656" y="-15" type="curve" smooth="yes"/>
      <point x="483" y="-15"/>
      <point x="379" y="26"/>
      <point x="354" y="103" type="curve"/>
      <point x="354" y="-372" type="line"/>
      <point x="157" y="-387" type="line"/>
      <point x="157" y="1097" type="line"/>
      <point x="336" y="1097" type="line"/>
      <point x="355" y="976" type="line"/>
      <point x="395" y="1076"/>
      <point x="500" y="1128"/>
      <point x="675" y="1128" type="curve" smooth="yes"/>
      <point x="1029" y="1128"/>
      <point x="1057" y="962"/>
    </contour>
  </outline>
</glyph>
<glyph name="q" format="1">
  <advance width="1200"/>
  <unicode hex="0071"/>
  <outline>
    <contour>
      <point x="589" y="990" type="curve" smooth="yes"/>
      <point x="350" y="990"/>
      <point x="338" y="949"/>
      <point x="338" y="698" type="curve" smooth="yes"/>
      <point x="338" y="506"/>
      <point x="339" y="377"/>
      <point x="347" y="233" type="curve" smooth="yes"/>
      <point x="352" y="139"/>
      <point x="394" y="122"/>
      <point x="591" y="122" type="curve" smooth="yes"/>
      <point x="786" y="122"/>
      <point x="847" y="151"/>
      <point x="847" y="252" type="curve" smooth="yes"/>
      <point x="847" y="844" type="line" smooth="yes"/>
      <point x="847" y="954"/>
      <point x="776" y="990"/>
    </contour>
    <contour>
      <point x="864" y="1097" type="line"/>
      <point x="1044" y="1097" type="line"/>
      <point x="1044" y="-372" type="line"/>
      <point x="847" y="-387" type="line"/>
      <point x="847" y="103" type="line"/>
      <point x="818" y="25"/>
      <point x="717" y="-15"/>
      <point x="543" y="-15" type="curve" smooth="yes"/>
      <point x="152" y="-15"/>
      <point x="144" y="209"/>
      <point x="144" y="557" type="curve" smooth="yes"/>
      <point x="144" y="969"/>
      <point x="180" y="1128"/>
      <point x="527" y="1128" type="curve" smooth="yes"/>
      <point x="700" y="1128"/>
      <point x="809" y="1075"/>
      <point x="845" y="976" type="curve"/>
    </contour>
  </outline>
</glyph>
<glyph name="s" format="1">
  <advance width="1118"/>
  <unicode hex="0073"/>
  <outline>
    <contour>
      <point x="520" y="1097" type="move" name="top"/>
    </contour>
    <contour>
      <point x="520" y="0" type="move" name="bottom"/>
    </contour>
    <contour>
      <point x="579" y="122" type="curve" smooth="yes"/>
      <point x="793" y="122"/>
      <point x="797" y="179"/>
      <point x="797" y="363" type="curve" smooth="yes"/>
      <point x="797" y="369"/>
      <point x="797" y="376"/>
      <point x="797" y="383" type="curve" smooth="yes"/>
      <point x="797" y="502"/>
      <point x="654" y="490"/>
      <point x="525" y="505" type="curve" smooth="yes"/>
      <point x="264" y="536"/>
      <point x="151" y="567"/>
      <point x="151" y="838" type="curve" smooth="yes"/>
      <point x="151" y="1076"/>
      <point x="268" y="1128"/>
      <point x="557" y="1128" type="curve" smooth="yes"/>
      <point x="786" y="1128"/>
      <point x="932" y="1114"/>
      <point x="932" y="880" type="curve"/>
      <point x="798" y="839" type="line"/>
      <point x="785" y="983"/>
      <point x="764" y="991"/>
      <point x="550" y="991" type="curve" smooth="yes"/>
      <point x="370" y="991"/>
      <point x="331" y="954"/>
      <point x="331" y="882" type="curve" smooth="yes"/>
      <point x="331" y="780" type="line" smooth="yes"/>
      <point x="331" y="685"/>
      <point x="369" y="683"/>
      <point x="609" y="653" type="curve" smooth="yes"/>
      <point x="889" y="618"/>
      <point x="977" y="594"/>
      <point x="977" y="304" type="curve" smooth="yes"/>
      <point x="977" y="49"/>
      <point x="865" y="-15"/>
      <point x="593" y="-15" type="curve" smooth="yes"/>
      <point x="315" y="-15"/>
      <point x="147" y="-5"/>
      <point x="147" y="287" type="curve"/>
      <point x="302" y="327" type="line"/>
      <point x="317" y="130"/>
      <point x="316" y="122"/>
    </contour>
  </outline>
</glyph>
<glyph name="t" format="1">
  <advance width="828"/>
  <unicode hex="0074"/>
  <outline>
    <contour>
      <point x="345" y="549" type="move" name="center"/>
    </contour>
    <contour>
      <point x="345" y="0" type="move" name="bottom"/>
    </contour>
    <contour>
      <point x="675" y="139" type="curve"/>
      <point x="671" y="-1" type="line"/>
      <point x="617" y="-10"/>
      <point x="566" y="-15"/>
      <point x="519" y="-15" type="curve" smooth="yes"/>
      <point x="319" y="-15"/>
      <point x="285" y="77"/>
      <point x="285" y="238" type="curve" smooth="yes"/>
      <point x="285" y="985" type="line"/>
      <point x="136" y="985" type="line"/>
      <point x="136" y="1097" type="line"/>
      <point x="285" y="1097" type="line"/>
      <point x="285" y="1409" type="line"/>
      <point x="481" y="1425" type="line"/>
      <point x="481" y="1097" type="line"/>
      <point x="683" y="1097" type="line"/>
      <point x="683" y="985" type="line"/>
      <point x="481" y="985" type="line"/>
      <point x="481" y="305" type="line" smooth="yes"/>
      <point x="481" y="172"/>
      <point x="483" y="133"/>
      <point x="549" y="133" type="curve" smooth="yes"/>
      <point x="591" y="133"/>
      <point x="635" y="136"/>
    </contour>
  </outline>
</glyph>
<glyph name="u" format="1">
  <advance width="1178"/>
  <unicode hex="0075"/>
  <outline>
    <contour>
      <point x="587" y="1097" type="move" name="top"/>
    </contour>
    <contour>
      <point x="1056" y="10" type="move" name="ogonek"/>
    </contour>
    <contour>
      <point x="824" y="1097" type="line"/>
      <point x="1023" y="1097" type="line"/>
      <point x="1023" y="-1" type="line"/>
      <point x="841" y="-1" type="line"/>
      <point x="823" y="140" type="line"/>
      <point x="786" y="29"/>
      <point x="654" y="-15"/>
      <point x="496" y="-15" type="curve" smooth="yes"/>
      <point x="212" y="-15"/>
      <point x="153" y="113"/>
      <point x="153" y="454" type="curve" smooth="yes"/>
      <point x="153" y="1097" type="line"/>
      <point x="350" y="1097" type="line"/>
      <point x="350" y="460" type="line" smooth="yes"/>
      <point x="350" y="418"/>
      <point x="349" y="381"/>
      <point x="349" y="348" type="curve" smooth="yes"/>
      <point x="349" y="159"/>
      <point x="365" y="122"/>
      <point x="584" y="122" type="curve" smooth="yes"/>
      <point x="804" y="122"/>
      <point x="825" y="196"/>
      <point x="825" y="303" type="curve" smooth="yes"/>
      <point x="825" y="328"/>
      <point x="824" y="355"/>
      <point x="824" y="383" type="curve" smooth="yes"/>
    </contour>
  </outline>
</glyph>
<glyph name="v" format="1">
  <advance width="1178"/>
  <unicode hex="0076"/>
  <outline>
    <contour>
      <point x="582" y="171" type="line"/>
      <point x="848" y="1097" type="line"/>
      <point x="1051" y="1097" type="line"/>
      <point x="688" y="0" type="line"/>
      <point x="474" y="0" type="line"/>
      <point x="129" y="1097" type="line"/>
      <point x="314" y="1097" type="line"/>
    </contour>
  </outline>
</glyph>
<glyph name="w" format="1">
  <advance width="1685"/>
  <unicode hex="0077"/>
  <outline>
    <contour>
      <point x="775" y="1097" type="move" name="top"/>
    </contour>
    <contour>
      <point x="1159" y="233" type="line"/>
      <point x="1358" y="1097" type="line"/>
      <point x="1555" y="1097" type="line"/>
      <point x="1269" y="0" type="line"/>
      <point x="1087" y="0" type="line"/>
      <point x="848" y="834" type="line"/>
      <point x="621" y="0" type="line"/>
      <point x="419" y="0" type="line"/>
      <point x="131" y="1097" type="line"/>
      <point x="320" y="1097" type="line"/>
      <point x="517" y="233" type="line"/>
      <point x="757" y="1097" type="line"/>
      <point x="934" y="1097" type="line"/>
    </contour>
  </outline>
</glyph>
<glyph name="x" format="1">
  <advance width="1183"/>
  <unicode hex="0078"/>
  <outline>
    <contour>
      <point x="1036" y="1097" type="line"/>
      <point x="703" y="563" type="line"/>
      <point x="1045" y="0" type="line"/>
      <point x="838" y="0" type="line"/>
      <point x="593" y="430" type="line"/>
      <point x="345" y="0" type="line"/>
      <point x="140" y="0" type="line"/>
      <point x="486" y="565" type="line"/>
      <point x="148" y="1097" type="line"/>
      <point x="354" y="1097" type="line"/>
      <point x="593" y="688" type="line"/>
      <point x="833" y="1097" type="line"/>
    </contour>
  </outline>
</glyph>
<glyph name="y" format="1">
  <advance width="1212"/>
  <unicode hex="0079"/>
  <outline>
    <contour>
      <point x="519" y="1097" type="move" name="top"/>
    </contour>
    <contour>
      <point x="733" y="587" type="curve" smooth="yes"/>
      <point x="884" y="1097" type="line"/>
      <point x="1085" y="1097" type="line"/>
      <point x="739" y="53" type="line" smooth="yes"/>
      <point x="665" y="-171"/>
      <point x="669" y="-346"/>
      <point x="449" y="-346" type="curve" smooth="yes"/>
      <point x="377" y="-346"/>
      <point x="305" y="-340"/>
      <point x="233" y="-323" type="curve"/>
      <point x="263" y="-171" type="line"/>
      <point x="318" y="-178"/>
      <point x="369" y="-190"/>
      <point x="413" y="-190" type="curve" smooth="yes"/>
      <point x="491" y="-190"/>
      <point x="543" y="-152"/>
      <point x="544" y="17" type="curve"/>
      <point x="133" y="1097" type="line"/>
      <point x="332" y="1097" type="line"/>
      <point x="534" y="540" type="line" smooth="yes"/>
      <point x="568" y="446"/>
      <point x="605" y="342"/>
      <point x="636" y="253" type="curve"/>
      <point x="665" y="359"/>
      <point x="700" y="477"/>
    </contour>
  </outline>
</glyph>
<glyph name="z" format="1">
  <advance width="936"/>
  <unicode hex="007A"/>
  <outline>
    <contour>
      <point x="326" y="135" type="line"/>
      <point x="843" y="135" type="line"/>
      <point x="834" y="0" type="line"/>
      <point x="144" y="0" type="line"/>
      <point x="127" y="141" type="line"/>
      <point x="640" y="960" type="line"/>
      <point x="173" y="960" type="line"/>
      <point x="164" y="1097" type="line"/>
      <point x="828" y="1097" type="line"/>
      <point x="837" y="960" type="line"/>
    </contour>
    <contour>
      <point x="418" y="1097" type="move" name="top"/>
    </contour>
  </outline>
</glyph>
<glyph name="bar" format="1">
  <advance width="497"/>
  <unicode hex="007C"/>
  <outline>
    <contour>
      <point x="336" y="-98" type="line"/>
      <point x="161" y="-98" type="line"/>
      <point x="161" y="1716" type="line"/>
      <point x="336" y="1716" type="line"/>
    </contour>
  </outline>
</glyph>
<glyph name="braceright" format="1">
  <advance width="850"/>
  <unicode hex="007D"/>
  <outline>
    <contour>
      <point x="120" y="-172" type="curve"/>
      <point x="120" y="-8" type="line"/>
      <point x="246" y="-8"/>
      <point x="303" y="33"/>
      <point x="343" y="171" type="curve" smooth="yes"/>
      <point x="396" y="357"/>
      <point x="349" y="685"/>
      <point x="509" y="758" type="curve"/>
      <point x="413" y="806"/>
      <point x="390" y="951"/>
      <point x="379" y="1091" type="curve" smooth="yes"/>
      <point x="355" y="1402"/>
      <point x="326" y="1530"/>
      <point x="121" y="1530" type="curve"/>
      <point x="121" y="1694" type="line"/>
      <point x="432" y="1694"/>
      <point x="510" y="1517"/>
      <point x="557" y="1207" type="curve" smooth="yes"/>
      <point x="576" y="1082" type="line" smooth="yes"/>
      <point x="598" y="934"/>
      <point x="626" y="858"/>
      <point x="717" y="858" type="curve"/>
      <point x="717" y="664" type="line"/>
      <point x="618" y="664"/>
      <point x="590" y="587"/>
      <point x="574" y="442" type="curve" smooth="yes"/>
      <point x="562" y="304" type="line" smooth="yes"/>
      <point x="535" y="54"/>
      <point x="488" y="-172"/>
    </contour>
  </outline>
</glyph>
<glyph name="ordfeminine" format="1">
  <advance width="984"/>
  <unicode hex="00AA"/>
  <outline>
    <contour>
      <point x="674" y="804" type="curve" smooth="yes"/>
      <point x="674" y="901" type="line"/>
      <point x="347" y="897"/>
      <point x="287" y="871"/>
      <point x="287" y="792" type="curve" smooth="yes"/>
      <point x="287" y="637"/>
      <point x="287" y="608"/>
      <point x="432" y="608" type="curve" smooth="yes"/>
      <point x="648" y="608"/>
      <point x="670" y="693"/>
    </contour>
    <contour>
      <point x="835" y="1104" type="curve" smooth="yes"/>
      <point x="835" y="509" type="line"/>
      <point x="707" y="509" type="line"/>
      <point x="682" y="637" type="line"/>
      <point x="647" y="516"/>
      <point x="557" y="497"/>
      <point x="409" y="497" type="curve" smooth="yes"/>
      <point x="193" y="497"/>
      <point x="139" y="579"/>
      <point x="139" y="797" type="curve" smooth="yes"/>
      <point x="139" y="955"/>
      <point x="326" y="1000"/>
      <point x="603" y="1000" type="curve" smooth="yes"/>
      <point x="627" y="1000"/>
      <point x="652" y="999"/>
      <point x="674" y="999" type="curve"/>
      <point x="674" y="1201" type="line" smooth="yes"/>
      <point x="674" y="1288"/>
      <point x="668" y="1311"/>
      <point x="498" y="1311" type="curve" smooth="yes"/>
      <point x="336" y="1311"/>
      <point x="314" y="1283"/>
      <point x="314" y="1213" type="curve" smooth="yes"/>
      <point x="314" y="1202"/>
      <point x="314" y="1189"/>
      <point x="315" y="1175" type="curve"/>
      <point x="192" y="1179" type="line"/>
      <point x="191" y="1189"/>
      <point x="191" y="1198"/>
      <point x="191" y="1207" type="curve" smooth="yes"/>
      <point x="191" y="1402"/>
      <point x="312" y="1423"/>
      <point x="508" y="1423" type="curve" smooth="yes"/>
      <point x="754" y="1423"/>
      <point x="835" y="1357"/>
    </contour>
  </outline>
</glyph>
<glyph name="logicalnot" format="1">
  <advance width="1193"/>
  <unicode hex="00AC"/>
  <outline>
    <contour>
      <point x="902" y="647" type="line"/>
      <point x="127" y="647" type="line"/>
      <point x="127" y="797" type="line"/>
      <point x="1051" y="797" type="line"/>
      <point x="1051" y="262" type="line"/>
      <point x="902" y="262" type="line"/>
    </contour>
  </outline>
</glyph>
<glyph name="macron" format="1">
  <advance width="846"/>
  <unicode hex="00AF"/>
  <outline>
    <contour>
      <point x="427.5" y="1097" type="move" name="_top"/>
    </contour>
    <contour>
      <point x="129" y="838" type="line"/>
      <point x="726" y="838" type="line"/>
      <point x="726" y="711" type="line"/>
      <point x="129" y="711" type="line"/>
    </contour>
  </outline>
</glyph>
<glyph name="degree" format="1">
  <advance width="866"/>
  <unicode hex="00B0"/>
  <outline>
    <contour>
      <point x="127" y="1322" type="curve" smooth="yes"/>
      <point x="127" y="1486"/>
      <point x="273" y="1597"/>
      <point x="435" y="1597" type="curve" smooth="yes"/>
      <point x="597" y="1597"/>
      <point x="742" y="1483"/>
      <point x="742" y="1321" type="curve" smooth="yes"/>
      <point x="742" y="1159"/>
      <point x="600" y="1046"/>
      <point x="435" y="1046" type="curve" smooth="yes"/>
      <point x="270" y="1046"/>
      <point x="127" y="1159"/>
    </contour>
    <contour>
      <point x="305" y="1321" type="curve" smooth="yes"/>
      <point x="305" y="1234"/>
      <point x="353" y="1155"/>
      <point x="435" y="1155" type="curve" smooth="yes"/>
      <point x="517" y="1155"/>
      <point x="567" y="1234"/>
      <point x="567" y="1321" type="curve" smooth="yes"/>
      <point x="567" y="1408"/>
      <point x="517" y="1486"/>
      <point x="434" y="1486" type="curve" smooth="yes"/>
      <point x="355" y="1486"/>
      <point x="305" y="1409"/>
    </contour>
  </outline>
</glyph>
<glyph name="guillemotright" format="1">
  <advance width="1232"/>
  <unicode hex="00BB"/>
  <outline>
    <contour>
      <point x="540" y="1086" type="line"/>
      <point x="634" y="1199" type="line"/>
      <point x="1109" y="775" type="line"/>
      <point x="1109" y="677" type="line"/>
      <point x="634" y="253" type="line"/>
      <point x="540" y="366" type="line"/>
      <point x="960" y="726" type="line"/>
    </contour>
    <contour>
      <point x="140" y="1086" type="line"/>
      <point x="236" y="1199" type="line"/>
      <point x="710" y="775" type="line"/>
      <point x="710" y="677" type="line"/>
      <point x="236" y="253" type="line"/>
      <point x="140" y="366" type="line"/>
      <point x="562" y="726" type="line"/>
    </contour>
  </outline>
</glyph>
<glyph name="Eth" format="1">
  <advance width="1492"/>
  <unicode hex="00D0"/>
  <outline>
    <contour>
      <point x="1141" y="620" type="curve" smooth="yes"/>
      <point x="1141" y="873" type="line" smooth="yes"/>
      <point x="1141" y="1259"/>
      <point x="1141" y="1336"/>
      <point x="648" y="1336" type="curve" smooth="yes"/>
      <point x="438" y="1336" type="line"/>
      <point x="438" y="826" type="line"/>
      <point x="706" y="826" type="line"/>
      <point x="706" y="689" type="line"/>
      <point x="438" y="689" type="line"/>
      <point x="438" y="153" type="line"/>
      <point x="678" y="153" type="line" smooth="yes"/>
      <point x="1072" y="153"/>
      <point x="1141" y="168"/>
    </contour>
    <contour>
      <point x="1342" y="876" type="curve" smooth="yes"/>
      <point x="1342" y="53"/>
      <point x="1297" y="0"/>
      <point x="597" y="0" type="curve" smooth="yes"/>
      <point x="235" y="0" type="line"/>
      <point x="235" y="689" type="line"/>
      <point x="142" y="689" type="line"/>
      <point x="142" y="826" type="line"/>
      <point x="235" y="826" type="line"/>
      <point x="235" y="1490" type="line"/>
      <point x="751" y="1490" type="line" smooth="yes"/>
      <point x="1237" y="1490"/>
      <point x="1342" y="1371"/>
    </contour>
  </outline>
</glyph>
<glyph name="Oslash" format="1">
  <advance width="1456"/>
  <unicode hex="00D8"/>
  <outline>
    <contour>
      <point x="719" y="1490" type="move" name="top"/>
    </contour>
    <contour>
      <point x="728" y="1360" type="curve" smooth="yes"/>
      <point x="394" y="1360"/>
      <point x="363" y="1313"/>
      <point x="357" y="1097" type="curve" smooth="yes"/>
      <point x="354" y="1006"/>
      <point x="354" y="914"/>
      <point x="354" y="821" type="curve" smooth="yes"/>
      <point x="354" y="789"/>
      <point x="354" y="757"/>
      <point x="354" y="725" type="curve" smooth="yes"/>
      <point x="354" y="698" type="line" smooth="yes"/>
      <point x="354" y="693"/>
      <point x="354" y="687"/>
      <point x="354" y="682" type="curve" smooth="yes"/>
      <point x="354" y="424"/>
      <point x="355" y="186"/>
      <point x="478" y="151" type="curve"/>
      <point x="825" y="1358" type="line"/>
      <point x="796" y="1359"/>
      <point x="764" y="1360"/>
    </contour>
    <contour>
      <point x="482" y="-300" type="line"/>
      <point x="349" y="-300" type="line"/>
      <point x="436" y="1" type="line"/>
      <point x="155" y="68"/>
      <point x="150" y="282"/>
      <point x="150" y="812" type="curve" smooth="yes"/>
      <point x="150" y="1367"/>
      <point x="229" y="1514"/>
      <point x="728" y="1514" type="curve" smooth="yes"/>
      <point x="779" y="1514"/>
      <point x="825" y="1512"/>
      <point x="868" y="1509" type="curve"/>
      <point x="940" y="1759" type="line"/>
      <point x="1073" y="1759" type="line"/>
      <point x="996" y="1490" type="line"/>
      <point x="1243" y="1433"/>
      <point x="1306" y="1264"/>
      <point x="1306" y="876" type="curve" smooth="yes"/>
      <point x="1306" y="813" type="line" smooth="yes"/>
      <point x="1306" y="139"/>
      <point x="1298" y="-24"/>
      <point x="728" y="-24" type="curve" smooth="yes"/>
      <point x="667" y="-24"/>
      <point x="612" y="-22"/>
      <point x="563" y="-18" type="curve"/>
    </contour>
    <contour>
      <point x="954" y="1344" type="curve"/>
      <point x="606" y="132" type="line"/>
      <point x="644" y="130"/>
      <point x="685" y="130"/>
      <point x="728" y="130" type="curve" smooth="yes"/>
      <point x="844" y="130"/>
      <point x="950" y="140"/>
      <point x="996" y="159" type="curve" smooth="yes"/>
      <point x="1097" y="202"/>
      <point x="1102" y="451"/>
      <point x="1102" y="697" type="curve" smooth="yes"/>
      <point x="1102" y="735"/>
      <point x="1102" y="773"/>
      <point x="1102" y="810" type="curve" smooth="yes"/>
      <point x="1102" y="907"/>
      <point x="1102" y="1002"/>
      <point x="1099" y="1097" type="curve" smooth="yes"/>
      <point x="1095" y="1248"/>
      <point x="1078" y="1317"/>
    </contour>
  </outline>
</glyph>
<glyph name="germandbls" format="1">
  <advance width="1264"/>
  <unicode hex="00DF"/>
  <outline>
    <contour>
      <point x="1122" y="401" type="curve" smooth="yes"/>
      <point x="1122" y="9"/>
      <point x="860" y="0"/>
      <point x="481" y="0" type="curve"/>
      <point x="481" y="162" type="line"/>
      <point x="560" y="162"/>
      <point x="653" y="160"/>
      <point x="713" y="160" type="curve" smooth="yes"/>
      <point x="901" y="160"/>
      <point x="924" y="183"/>
      <point x="924" y="522" type="curve" smooth="yes"/>
      <point x="924" y="736"/>
      <point x="875" y="737"/>
      <point x="521" y="737" type="curve" smooth="yes"/>
      <point x="511" y="737" type="line"/>
      <point x="511" y="890" type="line"/>
      <point x="592" y="890"/>
      <point x="651" y="885"/>
      <point x="698" y="885" type="curve" smooth="yes"/>
      <point x="839" y="885"/>
      <point x="849" y="925"/>
      <point x="849" y="1200" type="curve" smooth="yes"/>
      <point x="849" y="1303"/>
      <point x="827" y="1337"/>
      <point x="589" y="1337" type="curve" smooth="yes"/>
      <point x="373" y="1337"/>
      <point x="362" y="1337"/>
      <point x="362" y="1034" type="curve" smooth="yes"/>
      <point x="362" y="916" type="line" smooth="yes"/>
      <point x="362" y="554"/>
      <point x="363" y="192"/>
      <point x="363" y="-169" type="curve"/>
      <point x="164" y="-185" type="line"/>
      <point x="164" y="77"/>
      <point x="157" y="347"/>
      <point x="157" y="613" type="curve" smooth="yes"/>
      <point x="157" y="788"/>
      <point x="159" y="962"/>
      <point x="170" y="1132" type="curve" smooth="yes"/>
      <point x="187" y="1417"/>
      <point x="294" y="1497"/>
      <point x="605" y="1497" type="curve" smooth="yes"/>
      <point x="911" y="1497"/>
      <point x="1042" y="1410"/>
      <point x="1042" y="1141" type="curve" smooth="yes"/>
      <point x="1042" y="947"/>
      <point x="990" y="841"/>
      <point x="890" y="827" type="curve"/>
      <point x="1019" y="818"/>
      <point x="1122" y="698"/>
    </contour>
  </outline>
</glyph>
<glyph name="oslash" format="1">
  <advance width="1212"/>
  <unicode hex="00F8"/>
  <outline>
    <contour>
      <point x="588" y="1097" type="move" name="top"/>
    </contour>
    <contour>
      <point x="754" y="982" type="curve"/>
      <point x="570" y="124" type="line"/>
      <point x="581" y="124"/>
      <point x="593" y="123"/>
      <point x="605" y="123" type="curve" smooth="yes"/>
      <point x="607" y="123" type="line" smooth="yes"/>
      <point x="784" y="127"/>
      <point x="860" y="140"/>
      <point x="860" y="215" type="curve" smooth="yes"/>
      <point x="860" y="319"/>
      <point x="871" y="437"/>
      <point x="871" y="546" type="curve" smooth="yes"/>
      <point x="871" y="667"/>
      <point x="861" y="782"/>
      <point x="861" y="895" type="curve" smooth="yes"/>
      <point x="861" y="949"/>
      <point x="815" y="972"/>
    </contour>
    <contour>
      <point x="479" y="130" type="curve"/>
      <point x="663" y="989" type="line"/>
      <point x="606" y="989" type="line" smooth="yes"/>
      <point x="487" y="989"/>
      <point x="351" y="989"/>
      <point x="351" y="895" type="curve" smooth="yes"/>
      <point x="351" y="782"/>
      <point x="341" y="667"/>
      <point x="341" y="546" type="curve" smooth="yes"/>
      <point x="341" y="437"/>
      <point x="352" y="319"/>
      <point x="352" y="215" type="curve" smooth="yes"/>
      <point x="352" y="161"/>
      <point x="392" y="140"/>
    </contour>
    <contour>
      <point x="607" y="-15" type="curve" smooth="yes"/>
      <point x="605" y="-15" type="line" smooth="yes"/>
      <point x="583" y="-15"/>
      <point x="561" y="-15"/>
      <point x="541" y="-14" type="curve"/>
      <point x="501" y="-200" type="line"/>
      <point x="408" y="-200" type="line"/>
      <point x="449" y="-8" type="line"/>
      <point x="163" y="23"/>
      <point x="144" y="163"/>
      <point x="144" y="558" type="curve" smooth="yes"/>
      <point x="144" y="1035"/>
      <point x="190" y="1128"/>
      <point x="606" y="1128" type="curve" smooth="yes"/>
      <point x="637" y="1128"/>
      <point x="665" y="1127"/>
      <point x="692" y="1126" type="curve"/>
      <point x="729" y="1299" type="line"/>
      <point x="822" y="1299" type="line"/>
      <point x="783" y="1119" type="line"/>
      <point x="1035" y="1087"/>
      <point x="1068" y="956"/>
      <point x="1068" y="558" type="curve" smooth="yes"/>
      <point x="1068" y="101"/>
      <point x="1042" y="-15"/>
    </contour>
  </outline>
</glyph>
<glyph name="thorn" format="1">
  <advance width="1213"/>
  <unicode hex="00FE"/>
  <outline>
    <contour>
      <point x="355" y="355" type="curve" smooth="yes"/>
      <point x="355" y="145"/>
      <point x="398" y="144"/>
      <point x="620" y="144" type="curve" smooth="yes"/>
      <point x="849" y="144"/>
      <point x="871" y="189"/>
      <point x="871" y="392" type="curve" smooth="yes"/>
      <point x="871" y="440"/>
      <point x="870" y="496"/>
      <point x="870" y="562" type="curve" smooth="yes"/>
      <point x="870" y="647"/>
      <point x="871" y="715"/>
      <point x="871" y="770" type="curve" smooth="yes"/>
      <point x="871" y="995"/>
      <point x="850" y="1001"/>
      <point x="641" y="1001" type="curve" smooth="yes"/>
      <point x="365" y="1001"/>
      <point x="356" y="981"/>
      <point x="356" y="798" type="curve" smooth="yes"/>
      <point x="356" y="741"/>
      <point x="358" y="677"/>
      <point x="358" y="621" type="curve" smooth="yes"/>
      <point x="358" y="506"/>
      <point x="355" y="420"/>
    </contour>
    <contour>
      <point x="1069" y="550" type="curve" smooth="yes"/>
      <point x="1069" y="526" type="line" smooth="yes"/>
      <point x="1069" y="124"/>
      <point x="1020" y="-24"/>
      <point x="724" y="-24" type="curve" smooth="yes"/>
      <point x="526" y="-24"/>
      <point x="400" y="20"/>
      <point x="358" y="104" type="curve"/>
      <point x="358" y="-385" type="line"/>
      <point x="162" y="-401" type="line"/>
      <point x="162" y="1564" type="line"/>
      <point x="357" y="1579" type="line"/>
      <point x="357" y="1041" type="line"/>
      <point x="390" y="1124"/>
      <point x="504" y="1168"/>
      <point x="705" y="1168" type="curve" smooth="yes"/>
      <point x="1065" y="1168"/>
      <point x="1069" y="921"/>
    </contour>
  </outline>
</glyph>
<glyph name="dotlessi" format="1">
  <advance width="508"/>
  <unicode hex="0131"/>
  <outline>
    <contour>
      <point x="267" y="1097" type="move" name="top"/>
    </contour>
    <contour>
      <point x="480" y="10" type="move" name="ogonek"/>
    </contour>
    <contour>
      <point x="156" y="1097" type="line"/>
      <point x="353" y="1097" type="line"/>
      <point x="353" y="0" type="line"/>
      <point x="156" y="0" type="line"/>
    </contour>
  </outline>
</glyph>
<glyph name="oe" format="1">
  <advance width="1908"/>
  <unicode hex="0153"/>
  <outline>
    <contour>
      <point x="937" y="1097" type="move" name="top"/>
    </contour>
    <contour>
      <point x="870" y="545" type="curve" smooth="yes"/>
      <point x="870" y="659"/>
      <point x="859" y="771"/>
      <point x="859" y="879" type="curve" smooth="yes"/>
      <point x="859" y="978"/>
      <point x="748" y="981"/>
      <point x="642" y="981" type="curve" smooth="yes"/>
      <point x="434" y="981"/>
      <point x="358" y="973"/>
      <point x="352" y="879" type="curve" smooth="yes"/>
      <point x="345" y="771"/>
      <point x="342" y="658"/>
      <point x="342" y="544" type="curve" smooth="yes"/>
      <point x="342" y="427"/>
      <point x="353" y="315"/>
      <point x="353" y="207" type="curve" smooth="yes"/>
      <point x="353" y="119"/>
      <point x="460" y="115"/>
      <point x="607" y="115" type="curve" smooth="yes"/>
      <point x="692" y="115"/>
      <point x="750" y="122"/>
      <point x="782" y="130" type="curve" smooth="yes"/>
      <point x="862" y="151"/>
      <point x="871" y="305"/>
      <point x="871" y="441" type="curve" smooth="yes"/>
      <point x="871" y="478"/>
      <point x="870" y="514"/>
    </contour>
    <contour>
      <point x="1066" y="647" type="curve"/>
      <point x="1566" y="647" type="line"/>
      <point x="1566" y="727"/>
      <point x="1563" y="805"/>
      <point x="1557" y="881" type="curve" smooth="yes"/>
      <point x="1551" y="961"/>
      <point x="1497" y="982"/>
      <point x="1322" y="982" type="curve" smooth="yes"/>
      <point x="1228" y="982"/>
      <point x="1168" y="975"/>
      <point x="1140" y="966" type="curve" smooth="yes"/>
      <point x="1061" y="941"/>
      <point x="1069" y="768"/>
    </contour>
    <contour>
      <point x="1575" y="326" type="curve"/>
      <point x="1738" y="297" type="line"/>
      <point x="1731" y="29"/>
      <point x="1654" y="-24"/>
      <point x="1351" y="-24" type="curve" smooth="yes"/>
      <point x="1152" y="-24"/>
      <point x="1043" y="-3"/>
      <point x="968" y="63" type="curve"/>
      <point x="898" y="1"/>
      <point x="788" y="-24"/>
      <point x="606" y="-24" type="curve" smooth="yes"/>
      <point x="147" y="-24"/>
      <point x="145" y="136"/>
      <point x="145" y="599" type="curve" smooth="yes"/>
      <point x="145" y="1030"/>
      <point x="207" y="1119"/>
      <point x="607" y="1119" type="curve" smooth="yes"/>
      <point x="786" y="1119"/>
      <point x="898" y="1095"/>
      <point x="967" y="1034" type="curve"/>
      <point x="1042" y="1100"/>
      <point x="1153" y="1119"/>
      <point x="1323" y="1119" type="curve" smooth="yes"/>
      <point x="1727" y="1119"/>
      <point x="1765" y="1018"/>
      <point x="1765" y="555" type="curve"/>
      <point x="1725" y="549"/>
      <point x="1685" y="541"/>
      <point x="1645" y="541" type="curve" smooth="yes"/>
      <point x="1066" y="541" type="line"/>
      <point x="1069" y="393"/>
      <point x="1059" y="159"/>
      <point x="1149" y="131" type="curve" smooth="yes"/>
      <point x="1181" y="121"/>
      <point x="1241" y="114"/>
      <point x="1334" y="114" type="curve" smooth="yes"/>
      <point x="1516" y="114"/>
      <point x="1574" y="137"/>
      <point x="1574" y="193" type="curve" smooth="yes"/>
      <point x="1574" y="256"/>
      <point x="1575" y="326"/>
    </contour>
  </outline>
</glyph>
<glyph name="uni0307" format="1">
  <advance width="465"/>
  <unicode hex="0307"/>
  <outline>
    <contour>
      <point x="227" y="1097" type="move" name="_top"/>
    </contour>
    <contour>
      <point x="333" y="1207" type="curve"/>
      <point x="135" y="1207" type="line"/>
      <point x="135" y="1283"/>
      <point x="136" y="1359"/>
      <point x="136" y="1435" type="curve"/>
      <point x="332" y="1435" type="line"/>
      <point x="332" y="1359"/>
      <point x="333" y="1283"/>
    </contour>
  </outline>
</glyph>
<glyph name="quotedblbase" format="1">
  <advance width="718"/>
  <unicode hex="201E"/>
  <outline>
    <contour>
      <point x="514" y="-276" type="curve"/>
      <point x="489" y="-270" type="line"/>
      <point x="489" y="-270"/>
      <point x="414" y="85"/>
      <point x="414" y="164" type="curve" smooth="yes"/>
      <point x="414" y="261"/>
      <point x="428" y="301"/>
      <point x="501" y="301" type="curve" smooth="yes"/>
      <point x="557" y="301"/>
      <point x="587" y="261"/>
      <point x="587" y="179" type="curve" smooth="yes"/>
      <point x="587" y="96"/>
      <point x="514" y="-276"/>
    </contour>
    <contour>
      <point x="230" y="-276" type="curve"/>
      <point x="205" y="-270" type="line"/>
      <point x="205" y="-270"/>
      <point x="130" y="85"/>
      <point x="130" y="164" type="curve" smooth="yes"/>
      <point x="130" y="261"/>
      <point x="144" y="301"/>
      <point x="217" y="301" type="curve" smooth="yes"/>
      <point x="273" y="301"/>
      <point x="303" y="261"/>
      <point x="303" y="179" type="curve" smooth="yes"/>
      <point x="303" y="96"/>
      <point x="230" y="-276"/>
    </contour>
  </outline>
</glyph>
<glyph name="guilsinglleft" format="1">
  <advance width="831"/>
  <unicode hex="2039"/>
  <outline>
    <contour>
      <point x="597" y="220" type="line"/>
      <point x="122" y="644" type="line"/>
      <point x="122" y="742" type="line"/>
      <point x="597" y="1166" type="line"/>
      <point x="692" y="1053" type="line"/>
      <point x="271" y="693" type="line"/>
      <point x="692" y="333" type="line"/>
    </contour>
  </outline>
</glyph>
<glyph name="Euro" format="1">
  <advance width="1194"/>
  <unicode hex="20AC"/>
  <outline>
    <contour>
      <point x="1054" y="549" type="line"/>
      <point x="140" y="549" type="line"/>
      <point x="140" y="650" type="line"/>
      <point x="1054" y="650" type="line"/>
    </contour>
    <contour>
      <point x="1054" y="928" type="line"/>
      <point x="1054" y="823" type="line"/>
      <point x="140" y="823" type="line"/>
      <point x="140" y="927" type="line"/>
    </contour>
    <component base="C"/>
  </outline>
</glyph>
